<svg width="20" height="20" viewBox="0 0 20 20" fill="none" xmlns="http://www.w3.org/2000/svg">
<path fill-rule="evenodd" clip-rule="evenodd" d="M9.99983 1.75012C8.14546 1.75012 6.62097 2.40662 5.57306 3.6454C4.53962 4.86707 4.0415 6.56937 4.0415 8.54179L4.0415 9.16679C4.0415 11.2211 3.47214 12.4375 2.66121 13.2235C2.34325 13.5318 2.31025 13.9583 2.42391 14.2721C2.53949 14.5912 2.85624 14.9168 3.3328 14.9168H16.6669C17.1434 14.9168 17.4602 14.5912 17.5757 14.2721C17.6894 13.9583 17.6564 13.5318 17.3384 13.2235C16.5275 12.4375 15.9582 11.2211 15.9582 9.16679L15.9582 8.54179C15.9582 6.56937 15.46 4.86707 14.4266 3.6454C13.3787 2.40662 11.8542 1.75012 9.99983 1.75012Z" fill="#93949D"/>
<path d="M8.33326 16.7501C7.91905 16.7501 7.58326 17.0859 7.58326 17.5001C7.58326 17.9143 7.91905 18.2501 8.33326 18.2501H11.6666C12.0808 18.2501 12.4166 17.9143 12.4166 17.5001C12.4166 17.0859 12.0808 16.7501 11.6666 16.7501H8.33326Z" fill="#93949D"/>
</svg>
