<svg width="20" height="20" viewBox="0 0 20 20" fill="none" xmlns="http://www.w3.org/2000/svg">
<path d="M9.99999 18.3333C5.39749 18.3333 1.66666 14.6025 1.66666 9.99996C1.66666 5.39746 5.39749 1.66663 9.99999 1.66663C14.6025 1.66663 18.3333 5.39746 18.3333 9.99996C18.3333 14.6025 14.6025 18.3333 9.99999 18.3333ZM9.99999 16.6666C11.7681 16.6666 13.4638 15.9642 14.714 14.714C15.9643 13.4638 16.6667 11.7681 16.6667 9.99996C16.6667 8.23185 15.9643 6.53616 14.714 5.28591C13.4638 4.03567 11.7681 3.33329 9.99999 3.33329C8.23188 3.33329 6.53619 4.03567 5.28594 5.28591C4.0357 6.53616 3.33332 8.23185 3.33332 9.99996C3.33332 11.7681 4.0357 13.4638 5.28594 14.714C6.53619 15.9642 8.23188 16.6666 9.99999 16.6666ZM9.99999 5.83329C10.221 5.83329 10.433 5.92109 10.5892 6.07737C10.7455 6.23365 10.8333 6.44561 10.8333 6.66663V10.8333C10.8333 11.0543 10.7455 11.2663 10.5892 11.4225C10.433 11.5788 10.221 11.6666 9.99999 11.6666C9.77898 11.6666 9.56701 11.5788 9.41073 11.4225C9.25445 11.2663 9.16666 11.0543 9.16666 10.8333V6.66663C9.16666 6.44561 9.25445 6.23365 9.41073 6.07737C9.56701 5.92109 9.77898 5.83329 9.99999 5.83329ZM9.99999 14.1666C9.77898 14.1666 9.56701 14.0788 9.41073 13.9225C9.25445 13.7663 9.16666 13.5543 9.16666 13.3333C9.16666 13.1123 9.25445 12.9003 9.41073 12.744C9.56701 12.5878 9.77898 12.5 9.99999 12.5C10.221 12.5 10.433 12.5878 10.5892 12.744C10.7455 12.9003 10.8333 13.1123 10.8333 13.3333C10.8333 13.5543 10.7455 13.7663 10.5892 13.9225C10.433 14.0788 10.221 14.1666 9.99999 14.1666Z" fill="current"/>
</svg>
