<svg width="20" height="20" viewBox="0 0 20 20" fill="none" xmlns="http://www.w3.org/2000/svg">
<path d="M7.00001 10.2083C7.00001 8.55148 8.34316 7.20833 10 7.20833C11.6569 7.20833 13 8.55148 13 10.2083C13 11.8652 11.6569 13.2083 10 13.2083C8.34316 13.2083 7.00001 11.8652 7.00001 10.2083Z" fill="#93949D"/>
<path fill-rule="evenodd" clip-rule="evenodd" d="M8.42478 1.74993L11.575 1.74993C12.0121 1.7495 12.3805 1.74914 12.7267 1.85425C13.0306 1.94654 13.3134 2.09786 13.5588 2.29955C13.8383 2.52922 14.0424 2.83595 14.2846 3.19988L14.9848 4.24999L15.6958 4.24999C16.1374 4.24998 16.5134 4.24996 16.8221 4.27519C17.1464 4.30168 17.4619 4.35971 17.7635 4.51339C18.2182 4.74508 18.5879 5.11479 18.8196 5.56951C18.9733 5.87112 19.0313 6.18662 19.0578 6.51092C19.083 6.8196 19.083 7.19558 19.083 7.63712V14.0295C19.083 14.471 19.083 14.847 19.0578 15.1557C19.0313 15.48 18.9733 15.7955 18.8196 16.0971C18.5879 16.5519 18.2182 16.9216 17.7635 17.1533C17.4619 17.3069 17.1464 17.365 16.8221 17.3915C16.5134 17.4167 16.1374 17.4167 15.6959 17.4167H4.30352C3.86197 17.4167 3.48597 17.4167 3.17728 17.3915C2.85298 17.365 2.53749 17.3069 2.23588 17.1533C1.78115 16.9216 1.41145 16.5519 1.17975 16.0971C1.02608 15.7955 0.968048 15.48 0.941551 15.1557C0.916331 14.847 0.916341 14.4711 0.916352 14.0295V7.63715C0.916341 7.19562 0.916331 6.8196 0.941551 6.51092C0.968048 6.18662 1.02608 5.87112 1.17975 5.56951C1.41145 5.11479 1.78115 4.74508 2.23588 4.51339C2.53749 4.35971 2.85298 4.30168 3.17728 4.27519C3.48597 4.24996 3.86196 4.24998 4.30351 4.24999L5.01532 4.24999L5.71474 3.20049C5.95688 2.83642 6.16097 2.52956 6.44048 2.29979C6.68593 2.09802 6.96876 1.94663 7.27279 1.85429C7.61901 1.74914 7.98753 1.7495 8.42478 1.74993ZM10 5.70833C7.51473 5.70833 5.50001 7.72305 5.50001 10.2083C5.50001 12.6936 7.51473 14.7083 10 14.7083C12.4853 14.7083 14.5 12.6936 14.5 10.2083C14.5 7.72305 12.4853 5.70833 10 5.70833Z" fill="#93949D"/>
</svg>
