<svg width="20" height="20" viewBox="0 0 20 20" fill="none" xmlns="http://www.w3.org/2000/svg">
<path fill-rule="evenodd" clip-rule="evenodd" d="M15.5588 2.17283C15.2408 2.06951 14.8982 2.06951 14.5802 2.17283C14.3534 2.24652 14.1781 2.37187 14.0364 2.49222C13.9064 2.60258 13.7638 2.74521 13.6139 2.89508L13.5964 2.91264L2.5834 13.9256V17.4168H6.07462L17.0876 6.40385L17.1051 6.38632C17.255 6.23647 17.3976 6.09386 17.508 5.96386C17.6283 5.82209 17.7537 5.64679 17.8274 5.41999C17.9307 5.10199 17.9307 4.75944 17.8274 4.44144C17.7537 4.21464 17.6283 4.03934 17.508 3.89757C17.3976 3.76757 17.255 3.62497 17.1051 3.47513L16.5251 2.8951C16.3753 2.74523 16.2327 2.60259 16.1026 2.49222C15.9609 2.37187 15.7856 2.24652 15.5588 2.17283ZM15.0106 3.61973C15.0431 3.58719 15.0959 3.58719 15.1284 3.61973L16.3805 4.87178C16.413 4.90432 16.413 4.95709 16.3805 4.98963L5.45329 15.9168H4.08339V14.5469L15.0106 3.61973Z" fill="#93949D"/>
</svg>
