<svg width="20" height="20" viewBox="0 0 20 20" fill="none" xmlns="http://www.w3.org/2000/svg">
<path d="M3.33332 14.9999H7.91666V16.0416C7.91666 16.6494 7.67521 17.2323 7.24544 17.6621C6.81567 18.0918 6.23278 18.3333 5.62499 18.3333C5.0172 18.3333 4.43431 18.0918 4.00454 17.6621C3.57477 17.2323 3.33332 16.6494 3.33332 16.0416V14.9999ZM6.66666 5.09994C8.33332 5.09994 9.16666 7.49994 9.16666 9.16661C9.16666 9.99994 8.74999 10.8333 8.33332 12.0833L7.91666 13.3333H3.33332C3.33332 12.4999 2.91666 11.2499 2.91666 9.16661C2.91666 7.08328 4.58166 5.09994 6.66666 5.09994ZM16.7117 11.7483L16.5308 12.7741C16.4186 13.3663 16.0776 13.8904 15.5817 14.233C15.0858 14.5755 14.4748 14.7089 13.8813 14.6043C13.2877 14.4996 12.7593 14.1653 12.4104 13.6738C12.0616 13.1823 11.9204 12.5731 12.0175 11.9783L12.1975 10.9533L16.7117 11.7483ZM15.1483 1.42078C17.2017 1.78244 18.4967 4.02494 18.135 6.07661C17.7733 8.12828 17.1458 9.28661 17.0017 10.1074L12.4875 9.31161L12.2942 8.00828C12.1008 6.70494 11.8358 5.81161 11.98 4.99161C12.2692 3.34994 13.5067 1.13161 15.1483 1.42078Z" fill="#93949D"/>
</svg>
