<svg width="24" height="24" viewBox="0 0 24 24" fill="none" xmlns="http://www.w3.org/2000/svg">
<path d="M21.3067 5.03996L15.6813 20.2351C15.326 21.1952 14.3026 21.6884 13.3964 21.336C13.1719 21.2471 12.9683 21.1128 12.7984 20.9413C12.6284 20.7699 12.4958 20.5652 12.4089 20.34L10.6257 15.8325C10.4603 15.4037 10.2121 15.0117 9.89506 14.679C9.57806 14.3463 9.19858 14.0793 8.77832 13.8934L4.48627 12.0214C3.59328 11.6311 3.18694 10.5491 3.57721 9.60416C3.66952 9.37599 3.80617 9.16839 3.97924 8.99337C4.15231 8.81836 4.35837 8.6794 4.58549 8.58454L19.0586 2.67848C19.9724 2.30522 20.9864 2.77392 21.3218 3.72645C21.4702 4.14791 21.4636 4.61472 21.3067 5.03996Z" fill="#93949D"/>
</svg>
