<svg width="20" height="20" viewBox="0 0 20 20" fill="none" xmlns="http://www.w3.org/2000/svg">
<path d="M7.78737 2.70837C7.78737 2.29416 8.12316 1.95837 8.53737 1.95837H11.4519C11.8661 1.95837 12.2019 2.29416 12.2019 2.70837C12.2019 3.12258 11.8661 3.45837 11.4519 3.45837H8.53737C8.12316 3.45837 7.78737 3.12258 7.78737 2.70837Z" fill="#93949D"/>
<path d="M6.37253 2.69645C6.38507 3.11047 6.05961 3.45627 5.64559 3.46882C4.93159 3.49045 4.63416 3.54702 4.42228 3.65599L4.4147 3.65989C4.09314 3.82067 3.82563 4.08904 3.64414 4.43515C3.53587 4.64689 3.4796 4.94471 3.45803 5.65638C3.44548 6.0704 3.09968 6.39586 2.68566 6.38332C2.27164 6.37077 1.94618 6.02497 1.95872 5.61095C1.98027 4.90008 2.03164 4.29078 2.31128 3.74705L2.31356 3.74261C2.62797 3.14113 3.11431 2.63403 3.74014 2.32007C4.28289 2.04218 4.89098 1.991 5.60016 1.96951C6.01418 1.95697 6.35998 2.28243 6.37253 2.69645Z" fill="#93949D"/>
<path d="M13.6167 2.69645C13.6293 2.28243 13.9751 1.95697 14.3891 1.96951C15.0983 1.991 15.7063 2.04218 16.2491 2.32007C16.8749 2.63402 17.3613 3.14114 17.6757 3.74262L17.678 3.74704C17.9576 4.29077 18.009 4.90008 18.0305 5.61095C18.0431 6.02497 17.7176 6.37077 17.3036 6.38332C16.8896 6.39586 16.5438 6.0704 16.5312 5.65638C16.5096 4.94471 16.4534 4.6469 16.3451 4.43516C16.1636 4.08905 15.8961 3.82063 15.5746 3.65984L15.5669 3.65603C15.3551 3.54707 15.0576 3.49045 14.3436 3.46882C13.9296 3.45627 13.6042 3.11047 13.6167 2.69645Z" fill="#93949D"/>
<path d="M2.70838 7.78737C3.12259 7.78737 3.45837 8.12315 3.45837 8.53736V11.4519C3.45837 11.8661 3.12259 12.2019 2.70838 12.2019C2.29417 12.2019 1.95838 11.8661 1.95838 11.4519V8.53736C1.95838 8.12315 2.29417 7.78737 2.70838 7.78737Z" fill="#93949D"/>
<path d="M17.2809 7.78737C17.6951 7.78737 18.0309 8.12315 18.0309 8.53736V11.4519C18.0309 11.8661 17.6951 12.2019 17.2809 12.2019C16.8666 12.2019 16.5309 11.8661 16.5309 11.4519V8.53736C16.5309 8.12315 16.8666 7.78737 17.2809 7.78737Z" fill="#93949D"/>
<path d="M17.3144 13.6167C17.7284 13.6293 18.0539 13.9751 18.0413 14.3891C18.0198 15.0999 17.9684 15.7092 17.6888 16.253L17.6865 16.2574C17.372 16.8589 16.8856 17.3661 16.2597 17.68C15.717 17.9578 15.109 18.009 14.3999 18.0305C13.9859 18.0431 13.6401 17.7176 13.6275 17.3036C13.615 16.8895 13.9404 16.5437 14.3544 16.5312C15.0684 16.5096 15.3659 16.453 15.5778 16.344L15.5853 16.3401C15.9069 16.1793 16.1744 15.911 16.3559 15.5649C16.4642 15.3531 16.5204 15.0553 16.542 14.3436C16.5545 13.9296 16.9003 13.6042 17.3144 13.6167Z" fill="#93949D"/>
<path d="M2.68566 13.6275C3.09968 13.615 3.44548 13.9404 3.45803 14.3544C3.47967 15.0684 3.53624 15.3659 3.6452 15.5777L3.6491 15.5853C3.80988 15.9069 4.07826 16.1744 4.42437 16.3559C4.63611 16.4642 4.93393 16.5204 5.64559 16.542C6.05961 16.5545 6.38507 16.9003 6.37253 17.3144C6.35998 17.7284 6.01418 18.0538 5.60016 18.0413C4.88929 18.0198 4.27999 17.9684 3.73626 17.6888L3.73183 17.6865C3.13035 17.372 2.62324 16.8857 2.30928 16.2599C2.0314 15.7171 1.98021 15.109 1.95872 14.3999C1.94618 13.9858 2.27164 13.64 2.68566 13.6275Z" fill="#93949D"/>
<path d="M7.78737 17.2809C7.78737 16.8666 8.12316 16.5309 8.53737 16.5309H11.4519C11.8661 16.5309 12.2019 16.8666 12.2019 17.2809C12.2019 17.6951 11.8661 18.0309 11.4519 18.0309H8.53737C8.12316 18.0309 7.78737 17.6951 7.78737 17.2809Z" fill="#93949D"/>
</svg>
