<svg width="20" height="20" viewBox="0 0 20 20" fill="none" xmlns="http://www.w3.org/2000/svg">
<path fill-rule="evenodd" clip-rule="evenodd" d="M9.51665 18.175C9.26665 18 3.33331 13.7 3.33331 8.33329C3.33331 6.56518 4.03569 4.86949 5.28593 3.61925C6.53618 2.36901 8.23187 1.66663 9.99998 1.66663C11.7681 1.66663 13.4638 2.36901 14.714 3.61925C15.9643 4.86949 16.6666 6.56518 16.6666 8.33329C16.6666 13.7 10.7333 18 10.4833 18.175C10.3422 18.2754 10.1732 18.3294 9.99998 18.3294C9.82673 18.3294 9.65778 18.2754 9.51665 18.175ZM9.99998 16.4416C11.3416 15.35 15 12.0333 15 8.33329C15 7.00721 14.4732 5.73544 13.5355 4.79776C12.5978 3.86008 11.3261 3.33329 9.99998 3.33329C8.6739 3.33329 7.40213 3.86008 6.46445 4.79776C5.52676 5.73544 4.99998 7.00721 4.99998 8.33329C4.99998 12.0333 8.65831 15.35 9.99998 16.4416ZM11.6666 8.33329C11.6666 9.25377 10.9205 9.99996 9.99998 9.99996C9.0795 9.99996 8.33331 9.25377 8.33331 8.33329C8.33331 7.41282 9.0795 6.66663 9.99998 6.66663C10.9205 6.66663 11.6666 7.41282 11.6666 8.33329Z" fill="#93949D"/>
</svg>
