<svg width="20" height="20" viewBox="0 0 20 20" fill="none" xmlns="http://www.w3.org/2000/svg">
<path d="M2.5838 4.16663C2.5838 3.75241 2.91959 3.41663 3.3338 3.41663H16.6671C17.0813 3.41663 17.4171 3.75241 17.4171 4.16663C17.4171 4.58084 17.0813 4.91663 16.6671 4.91663H3.3338C2.91959 4.91663 2.5838 4.58084 2.5838 4.16663Z" fill="current"/>
<path d="M2.5838 15.8333C2.5838 15.4191 2.91959 15.0833 3.3338 15.0833H16.6671C17.0813 15.0833 17.4171 15.4191 17.4171 15.8333C17.4171 16.2475 17.0813 16.5833 16.6671 16.5833H3.3338C2.91959 16.5833 2.5838 16.2475 2.5838 15.8333Z" fill="current"/>
<path d="M3.3338 9.24996C2.91959 9.24996 2.5838 9.58575 2.5838 9.99996C2.5838 10.4142 2.91959 10.75 3.3338 10.75H16.6671C17.0813 10.75 17.4171 10.4142 17.4171 9.99996C17.4171 9.58575 17.0813 9.24996 16.6671 9.24996H3.3338Z" fill="current"/>
</svg>
