<svg width="20" height="20" viewBox="0 0 20 20" fill="none" xmlns="http://www.w3.org/2000/svg">
<path d="M14.1671 7.50008V5.83341C14.1671 3.50008 12.3337 1.66675 10.0004 1.66675C7.66707 1.66675 5.83374 3.50008 5.83374 5.83341V7.50008C4.41707 7.50008 3.33374 8.58341 3.33374 10.0001V15.8334C3.33374 17.2501 4.41707 18.3334 5.83374 18.3334H14.1671C15.5837 18.3334 16.6671 17.2501 16.6671 15.8334V10.0001C16.6671 8.58341 15.5837 7.50008 14.1671 7.50008ZM7.50041 5.83341C7.50041 4.41675 8.58374 3.33341 10.0004 3.33341C11.4171 3.33341 12.5004 4.41675 12.5004 5.83341V7.50008H7.50041V5.83341Z" fill="#93949D"/>
</svg>
