<svg width="20" height="20" viewBox="0 0 20 20" fill="none" xmlns="http://www.w3.org/2000/svg">
<path d="M15.6251 12.8125C15.0437 12.8133 14.4768 12.9939 14.0021 13.3296C13.5274 13.6653 13.1681 14.1396 12.9736 14.6875H5.62512C5.04496 14.6875 4.48856 14.457 4.07833 14.0468C3.66809 13.6366 3.43762 13.0802 3.43762 12.5C3.43762 11.9198 3.66809 11.3634 4.07833 10.9532C4.48856 10.543 5.04496 10.3125 5.62512 10.3125H13.1251C14.0368 10.3125 14.9111 9.95034 15.5558 9.30568C16.2005 8.66102 16.5626 7.78668 16.5626 6.875C16.5626 5.96332 16.2005 5.08898 15.5558 4.44432C14.9111 3.79966 14.0368 3.4375 13.1251 3.4375H5.62512C5.37648 3.4375 5.13803 3.53627 4.96221 3.71209C4.78639 3.8879 4.68762 4.12636 4.68762 4.375C4.68762 4.62364 4.78639 4.8621 4.96221 5.03791C5.13803 5.21373 5.37648 5.3125 5.62512 5.3125H13.1251C13.5395 5.3125 13.937 5.47712 14.23 5.77015C14.523 6.06317 14.6876 6.4606 14.6876 6.875C14.6876 7.2894 14.523 7.68683 14.23 7.97985C13.937 8.27288 13.5395 8.4375 13.1251 8.4375H5.62512C4.54768 8.4375 3.51437 8.86551 2.7525 9.62738C1.99063 10.3892 1.56262 11.4226 1.56262 12.5C1.56262 13.5774 1.99063 14.6108 2.7525 15.3726C3.51437 16.1345 4.54768 16.5625 5.62512 16.5625H12.9736C13.1454 17.0486 13.4476 17.4782 13.8472 17.8041C14.2467 18.1301 14.7281 18.34 15.2388 18.4108C15.7496 18.4817 16.27 18.4107 16.7431 18.2058C17.2162 18.0008 17.6239 17.6698 17.9216 17.2488C18.2193 16.8278 18.3955 16.333 18.431 15.8186C18.4665 15.3042 18.3599 14.7899 18.1229 14.332C17.8858 13.8741 17.5275 13.4902 17.087 13.2222C16.6465 12.9542 16.1407 12.8125 15.6251 12.8125ZM15.6251 16.5625C15.4397 16.5625 15.2584 16.5075 15.1043 16.4045C14.9501 16.3015 14.8299 16.1551 14.759 15.9838C14.688 15.8125 14.6695 15.624 14.7056 15.4421C14.7418 15.2602 14.8311 15.0932 14.9622 14.9621C15.0933 14.831 15.2604 14.7417 15.4422 14.7055C15.6241 14.6693 15.8126 14.6879 15.9839 14.7589C16.1552 14.8298 16.3016 14.95 16.4046 15.1042C16.5076 15.2583 16.5626 15.4396 16.5626 15.625C16.5626 15.8736 16.4639 16.1121 16.288 16.2879C16.1122 16.4637 15.8738 16.5625 15.6251 16.5625Z" fill="#93949D"/>
</svg>
