<svg width="20" height="20" viewBox="0 0 20 20" fill="none" xmlns="http://www.w3.org/2000/svg">
<path fill-rule="evenodd" clip-rule="evenodd" d="M7.50024 2.83264H12.5002V1.33264H7.50024V2.83264ZM17.5002 5.74963H16.3757L16.3757 16.1911C16.3758 16.403 16.3758 16.6048 16.3619 16.7747C16.3467 16.96 16.3114 17.1726 16.2032 17.3851C16.0514 17.683 15.8091 17.9253 15.5112 18.0771C15.2987 18.1853 15.0861 18.2206 14.9008 18.2358C14.7309 18.2497 14.5292 18.2497 14.3172 18.2496H5.68427C5.47235 18.2497 5.27062 18.2497 5.10066 18.2358C4.91532 18.2206 4.70273 18.1853 4.49025 18.0771C4.19233 17.9253 3.95011 17.683 3.79831 17.3851C3.69004 17.1726 3.65472 16.96 3.63958 16.7747C3.62569 16.6047 3.62571 16.403 3.62573 16.1911L3.62574 5.74963H2.50024V4.24963H17.5002V5.74963ZM5.12504 5.74963H14.875V16.6658C14.875 16.7119 14.8377 16.7492 14.7917 16.7492H5.20838C5.16235 16.7492 5.12504 16.7119 5.12504 16.6658V5.74963ZM10.9169 13.7496V8.74963H12.4169V13.7496H10.9169ZM7.58358 8.74963V13.7496H9.08358V8.74963H7.58358Z" fill="#93949D"/>
</svg>
