<svg width="20" height="20" viewBox="0 0 20 20" fill="none" xmlns="http://www.w3.org/2000/svg">
<path d="M7.82813 18.5V13.4584C7.82813 12.9722 8.03225 12.5059 8.39561 12.1621C8.75896 11.8183 9.25177 11.6251 9.76563 11.6251H10.7344C11.2482 11.6251 11.741 11.8183 12.1044 12.1621C12.4677 12.5059 12.6719 12.9722 12.6719 13.4584V18.5M4.56634 18.5C3.42516 18.5 2.5 17.6017 2.5 16.4925V8.42415C2.5 7.81458 2.78578 7.23709 3.275 6.85668L8.95866 2.44025C9.3218 2.1557 9.77851 2 10.25 2C10.7215 2 11.1782 2.1557 11.5413 2.44025L17.224 6.85668C17.7142 7.23709 18 7.81458 18 8.42415V16.4925C18 17.6017 17.0748 18.5 15.9337 18.5H4.56634Z" stroke="#93949D" stroke-width="1.65" stroke-linecap="round" stroke-linejoin="round"/>
</svg>
