<svg width="20" height="20" viewBox="0 0 20 20" fill="none" xmlns="http://www.w3.org/2000/svg">
<path fill-rule="evenodd" clip-rule="evenodd" d="M12.2596 13.9262L11.3088 12.9755C10.9084 13.1519 10.4655 13.2498 9.99986 13.2498C8.20494 13.2498 6.74986 11.7948 6.74986 9.99985C6.74986 9.53416 6.84781 9.09135 7.02422 8.69089L5.48087 7.14754C4.41785 7.87653 3.53977 8.85557 2.93142 9.99986C4.2756 12.5282 6.93668 14.2498 9.99986 14.2498C10.7846 14.2498 11.543 14.1368 12.2596 13.9262ZM13.7649 13.3103L6.84894 6.3943C7.81589 5.97954 8.88106 5.74988 9.99986 5.74988C13.063 5.74988 15.7241 7.47147 17.0683 9.99986C16.3214 11.4047 15.168 12.5605 13.7649 13.3103ZM14.8655 14.4109C16.4736 13.4501 17.7738 12.0276 18.5832 10.3264C18.6815 10.1198 18.6815 9.87996 18.5832 9.67336C17.0575 6.46653 13.7875 4.24988 9.99986 4.24988C8.46048 4.24988 7.00662 4.61602 5.7206 5.26596L3.14385 2.68921L2.08319 3.74987L4.4048 6.07148C3.13243 7.00021 2.09963 8.23753 1.4165 9.67336C1.3182 9.87996 1.3182 10.1198 1.4165 10.3264C2.94224 13.5332 6.21219 15.7498 9.99986 15.7498C11.2134 15.7498 12.3739 15.5223 13.4408 15.1075L15.6361 17.3027L16.6967 16.2421L14.8655 14.4109ZM8.25172 9.9184L10.0813 11.748C10.0543 11.7492 10.0272 11.7498 9.99986 11.7498C9.03336 11.7498 8.24986 10.9663 8.24986 9.99985C8.24986 9.97255 8.25049 9.94539 8.25172 9.9184ZM13.1854 10.6473C13.2277 10.4381 13.2499 10.2215 13.2499 9.99985C13.2499 8.20492 11.7948 6.74985 9.99986 6.74985C9.77816 6.74985 9.56165 6.77205 9.35242 6.81434L13.1854 10.6473Z" fill="#93949D"/>
</svg>
