<svg width="20" height="20" viewBox="0 0 20 20" fill="none" xmlns="http://www.w3.org/2000/svg">
<path d="M14.7059 2V3.6M10.0001 2V3.6M5.29418 2V3.6M2.00006 7.6V10.8C2.00006 13.0624 2.00006 14.1944 2.82736 14.8968C3.65371 15.6 4.98547 15.6 7.64712 15.6H12.353C15.0146 15.6 16.3464 15.6 17.1728 14.8968C18.0001 14.1944 18.0001 13.0624 18.0001 10.8V7.6M2.00006 7.6C2.00006 5.3376 2.00006 4.2056 2.82736 3.5032C3.65371 2.8 4.98547 2.8 7.64712 2.8H12.353C15.0146 2.8 16.3464 2.8 17.1728 3.5032C18.0001 4.2056 18.0001 5.3376 18.0001 7.6M2.00006 7.6L2.00006 13.2C2.00006 15.4624 2.00006 16.5944 2.82736 17.2968C3.65371 18 4.98547 18 7.64712 18H12.353C15.0146 18 16.3464 18 17.1728 17.2968C18.0001 16.5944 18.0001 15.4624 18.0001 13.2L18.0001 7.6M6.23536 12.4H10.0001M6.23536 8.4H13.7648" stroke="#93949D" stroke-width="1.5" stroke-linecap="round" stroke-linejoin="round"/>
</svg>
