<svg width="20" height="20" viewBox="0 0 20 20" fill="none" xmlns="http://www.w3.org/2000/svg">
<path d="M3.74985 17.4999C3.74985 17.4999 2.49985 17.4999 2.49985 16.2499C2.49985 14.9999 3.74985 11.2499 9.99985 11.2499C16.2498 11.2499 17.4998 14.9999 17.4998 16.2499C17.4998 17.4999 16.2498 17.4999 16.2498 17.4999H3.74985ZM9.99985 9.99988C10.9944 9.99988 11.9482 9.60479 12.6515 8.90153C13.3548 8.19827 13.7498 7.24444 13.7498 6.24988C13.7498 5.25532 13.3548 4.30149 12.6515 3.59823C11.9482 2.89497 10.9944 2.49988 9.99985 2.49988C9.00529 2.49988 8.05146 2.89497 7.3482 3.59823C6.64494 4.30149 6.24985 5.25532 6.24985 6.24988C6.24985 7.24444 6.64494 8.19827 7.3482 8.90153C8.05146 9.60479 9.00529 9.99988 9.99985 9.99988Z" fill="#93949D"/>
</svg>
