<svg width="20" height="20" viewBox="0 0 20 20" fill="none" xmlns="http://www.w3.org/2000/svg">
<path d="M17.5001 17.5C17.5001 17.6658 17.4343 17.8247 17.3171 17.9419C17.1999 18.0592 17.0409 18.125 16.8751 18.125H3.12512C2.95936 18.125 2.80039 18.0592 2.68318 17.9419C2.56597 17.8247 2.50012 17.6658 2.50012 17.5C2.50012 17.3342 2.56597 17.1753 2.68318 17.0581C2.80039 16.9408 2.95936 16.875 3.12512 16.875H16.8751C17.0409 16.875 17.1999 16.9408 17.3171 17.0581C17.4343 17.1753 17.5001 17.3342 17.5001 17.5ZM16.2501 10H11.8415L13.0689 4.27422C13.147 3.90976 13.1427 3.53243 13.0562 3.16986C12.9697 2.80729 12.8032 2.46865 12.569 2.17872C12.3347 1.8888 12.0385 1.65493 11.7022 1.49424C11.3659 1.33355 10.9979 1.2501 10.6251 1.25H9.37512C9.00238 1.2501 8.63437 1.33355 8.29804 1.49424C7.96171 1.65493 7.66556 1.8888 7.43129 2.17872C7.19701 2.46865 7.03053 2.80729 6.94404 3.16986C6.85754 3.53243 6.85321 3.90976 6.93137 4.27422L8.15872 10H3.75012C3.4186 10 3.10066 10.1317 2.86624 10.3661C2.63182 10.6005 2.50012 10.9185 2.50012 11.25V14.375C2.50012 14.7065 2.63182 15.0245 2.86624 15.2589C3.10066 15.4933 3.4186 15.625 3.75012 15.625H16.2501C16.5816 15.625 16.8996 15.4933 17.134 15.2589C17.3684 15.0245 17.5001 14.7065 17.5001 14.375V11.25C17.5001 10.9185 17.3684 10.6005 17.134 10.3661C16.8996 10.1317 16.5816 10 16.2501 10Z" fill="#93949D"/>
</svg>
