<svg width="20" height="20" viewBox="0 0 20 20" fill="none" xmlns="http://www.w3.org/2000/svg">
<path fill-rule="evenodd" clip-rule="evenodd" d="M2.93145 9.99998C4.27563 7.47159 6.93671 5.75 9.99989 5.75C13.0631 5.75 15.7242 7.47159 17.0683 9.99998C15.7242 12.5284 13.0631 14.25 9.99989 14.25C6.93671 14.25 4.27563 12.5284 2.93145 9.99998ZM18.5833 10.3265C18.6816 10.1199 18.6816 9.88008 18.5833 9.67348C17.0575 6.46665 13.7876 4.25 9.99989 4.25C6.21222 4.25 2.94227 6.46665 1.41653 9.67348C1.31823 9.88008 1.31823 10.1199 1.41653 10.3265C2.94227 13.5333 6.21222 15.75 9.99989 15.75C13.7876 15.75 17.0575 13.5333 18.5833 10.3265ZM8.24989 10C8.24989 9.0335 9.03339 8.25 9.99989 8.25C10.9664 8.25 11.7499 9.0335 11.7499 10C11.7499 10.9665 10.9664 11.75 9.99989 11.75C9.03339 11.75 8.24989 10.9665 8.24989 10ZM9.99989 6.75C8.20497 6.75 6.74989 8.20507 6.74989 10C6.74989 11.7949 8.20497 13.25 9.99989 13.25C11.7948 13.25 13.2499 11.7949 13.2499 10C13.2499 8.20507 11.7948 6.75 9.99989 6.75Z" fill="#93949D"/>
</svg>
