<svg width="20" height="20" viewBox="0 0 20 20" fill="none" xmlns="http://www.w3.org/2000/svg">
<path fill-rule="evenodd" clip-rule="evenodd" d="M15.5471 1.84314C15.9901 1.62356 16.5103 1.62358 16.9534 1.84318C17.1914 1.96115 17.3918 2.16297 17.5653 2.33752L17.6627 2.43495C17.8372 2.60836 18.0389 2.80885 18.1569 3.04684C18.3764 3.48986 18.3764 4.01 18.1569 4.45301C18.0389 4.691 17.8371 4.89148 17.6626 5.06489L9.47754 13.2499H6.7502V10.5226L14.9351 2.33745C15.1086 2.1629 15.3091 1.9611 15.5471 1.84314ZM16.3091 3.20272C16.2766 3.17017 16.2238 3.17017 16.1913 3.20271L8.25024 11.1438V11.7498H8.85625L16.7972 3.80865C16.8297 3.77611 16.8297 3.72335 16.7972 3.69081L16.3091 3.20272Z" fill="#93949D"/>
<path fill-rule="evenodd" clip-rule="evenodd" d="M6.21958 2.16675C5.66224 2.16674 5.19892 2.16673 4.8208 2.19762C4.42702 2.2298 4.06007 2.29918 3.7139 2.47556C3.18077 2.74721 2.74733 3.18065 2.47569 3.71378C2.2993 4.05995 2.22992 4.4269 2.19775 4.82068C2.16685 5.1988 2.16686 5.66212 2.16687 6.21946V13.7807C2.16686 14.338 2.16685 14.8014 2.19775 15.1795C2.22992 15.5733 2.2993 15.9402 2.47569 16.2864C2.74733 16.8195 3.18077 17.253 3.7139 17.5246C4.06007 17.701 4.42702 17.7704 4.8208 17.8025C5.19892 17.8334 5.66224 17.8334 6.21957 17.8334H13.7809C14.3382 17.8334 14.8016 17.8334 15.1797 17.8025C15.5735 17.7704 15.9404 17.701 16.2866 17.5246C16.8197 17.253 17.2532 16.8195 17.5248 16.2864C17.7012 15.9402 17.7706 15.5732 17.8027 15.1795C17.8336 14.8013 17.8336 14.338 17.8336 13.7806L17.8335 9.16674L16.3335 9.16676L16.3336 13.7501C16.3336 14.3458 16.333 14.7475 16.3077 15.0573C16.2831 15.3583 16.239 15.5059 16.1883 15.6054C16.0605 15.8563 15.8565 16.0603 15.6056 16.1881C15.5061 16.2388 15.3586 16.2829 15.0575 16.3075C14.7478 16.3328 14.346 16.3334 13.7503 16.3334H6.25021C5.65444 16.3334 5.25272 16.3328 4.94295 16.3075C4.64193 16.2829 4.49436 16.2388 4.39488 16.1881C4.144 16.0603 3.94003 15.8563 3.8122 15.6054C3.76151 15.5059 3.71736 15.3584 3.69276 15.0573C3.66745 14.7476 3.66687 14.3458 3.66687 13.7501V6.25008C3.66687 5.65432 3.66745 5.2526 3.69276 4.94283C3.71736 4.64181 3.76151 4.49424 3.8122 4.39476C3.94003 4.14388 4.144 3.9399 4.39488 3.81207C4.49436 3.76139 4.64193 3.71724 4.94295 3.69264C5.25272 3.66733 5.65444 3.66675 6.25021 3.66675H10.8335V2.16675L6.21958 2.16675Z" fill="#93949D"/>
</svg>
